<svg id="svg" version="1.1" xmlns="http://www.w3.org/2000/svg" xmlns:xlink="http://www.w3.org/1999/xlink" width="400" height="433.3333333333333" viewBox="0, 0, 400,433.3333333333333"><g id="svgg"><path id="path0" d="M175.610 1.659 C 118.384 8.563,66.293 41.840,32.295 93.211 C -18.566 170.062,-7.972 270.747,58.146 338.910 L 68.040 349.109 69.490 346.896 L 70.940 344.683 63.802 337.585 C -27.078 247.220,-9.623 102.405,100.490 33.198 C 241.034 -55.135,429.820 82.353,389.087 243.376 C 380.790 276.172,364.533 305.108,337.886 334.510 C 332.562 340.385,332.355 340.759,333.821 341.869 C 336.056 343.560,335.864 343.676,342.577 336.541 C 387.734 288.539,407.602 225.987,396.716 166.087 C 378.523 65.970,275.791 -10.427,175.610 1.659 M213.612 41.663 C 211.314 43.408,210.475 46.874,211.432 50.675 C 211.906 52.556,212.180 56.100,212.041 58.551 L 211.789 63.008 208.685 58.130 C 205.434 53.020,205.379 52.565,206.996 44.106 C 207.716 40.343,206.444 40.595,195.327 46.412 C 184.352 52.156,183.725 52.177,175.856 47.050 C 171.453 44.182,170.343 43.794,167.857 44.261 L 164.970 44.802 165.415 49.434 C 166.792 63.765,166.971 63.332,161.234 59.525 C 157.279 56.901,154.765 53.931,153.550 50.445 C 151.968 45.908,149.543 47.345,142.297 57.114 C 138.439 62.314,137.903 62.494,133.285 60.138 C 127.153 57.010,127.757 61.323,134.993 72.343 C 140.346 80.494,140.425 80.932,136.420 80.179 C 127.080 78.422,122.033 74.066,119.048 65.183 C 116.584 57.850,115.724 57.991,111.120 66.482 C 104.560 78.584,104.730 78.451,95.807 78.481 C 86.523 78.512,86.179 78.704,86.179 83.868 C 86.179 91.582,80.855 98.404,66.313 109.327 C 53.569 118.899,54.307 116.818,58.860 130.345 L 62.739 141.867 60.197 143.988 C 56.508 147.068,49.392 150.479,45.593 150.989 C 41.058 151.597,40.409 152.615,41.490 157.429 C 42.633 162.517,42.003 165.678,39.030 169.783 L 36.633 173.090 38.763 174.766 C 39.934 175.687,46.616 179.587,53.611 183.433 C 70.081 192.488,69.993 192.423,67.886 194.003 L 66.260 195.222 67.886 196.483 C 77.115 203.636,109.058 207.559,121.138 203.023 C 123.150 202.268,125.932 201.644,127.320 201.638 L 129.843 201.626 129.460 197.358 C 128.943 191.588,128.180 191.031,125.002 194.106 C 120.171 198.781,115.297 200.389,106.098 200.344 C 93.728 200.284,76.942 195.438,77.690 192.144 C 77.941 191.043,76.829 189.903,73.459 187.805 C 62.934 181.253,53.883 170.731,57.724 169.512 C 60.896 168.505,61.284 166.117,58.929 162.097 C 56.507 157.965,56.710 156.443,59.841 155.252 C 61.029 154.801,63.022 153.704,64.270 152.816 L 66.539 151.200 68.590 155.681 C 71.100 161.164,73.665 162.015,72.907 157.114 C 71.119 145.550,71.046 146.118,74.945 141.331 C 82.442 132.127,92.076 116.196,90.873 114.993 C 89.957 114.076,87.275 116.160,83.285 120.890 C 69.793 136.888,68.559 137.473,68.374 127.962 C 68.245 121.374,71.374 117.871,89.305 104.526 C 98.847 97.425,99.983 95.768,97.977 91.889 C 96.152 88.358,97.306 87.437,101.044 89.441 C 105.312 91.728,105.923 91.572,111.867 86.669 C 118.247 81.407,119.547 81.088,128.455 82.606 C 138.893 84.384,142.490 85.808,145.769 89.461 C 152.004 96.406,151.904 92.798,145.528 80.764 C 139.598 69.569,139.610 70.164,145.211 64.651 C 150.308 59.635,152.356 59.124,156.248 61.896 C 157.587 62.849,160.205 64.077,162.065 64.625 L 165.447 65.620 165.670 70.818 C 166.061 79.954,168.063 80.291,169.921 71.536 C 170.820 67.298,171.196 66.667,172.822 66.667 C 175.573 66.667,179.037 65.168,178.456 64.229 C 178.179 63.781,176.486 63.415,174.694 63.415 C 171.182 63.415,171.192 63.454,173.229 58.006 C 174.289 55.170,175.155 55.157,180.988 57.887 L 186.532 60.481 193.689 57.963 L 200.846 55.445 204.627 60.853 C 211.226 70.288,212.253 71.545,213.368 71.545 C 215.088 71.545,217.186 65.196,217.665 58.537 C 218.362 48.864,220.074 48.256,229.426 54.361 C 237.719 59.775,239.557 60.251,251.173 59.990 L 261.111 59.768 263.889 62.799 C 268.022 67.309,267.671 69.114,260.908 78.111 C 249.980 92.651,250.614 93.911,262.987 82.247 C 267.653 77.848,273.133 73.367,275.166 72.289 C 279.667 69.901,279.903 68.101,276.493 62.157 C 271.191 52.914,264.580 49.512,255.171 51.187 C 247.931 52.476,243.091 51.506,229.309 46.003 C 215.537 40.504,215.244 40.423,213.612 41.663 M187.869 72.521 C 184.224 74.477,185.074 75.297,190.434 74.995 C 200.289 74.441,205.212 79.585,204.640 89.837 C 204.228 97.219,202.680 100.143,193.177 111.490 C 182.862 123.807,182.816 124.002,185.772 143.089 C 186.361 146.890,186.643 152.470,186.399 155.488 C 185.927 161.341,186.761 162.542,188.942 159.146 C 191.381 155.348,192.893 147.904,192.492 141.663 C 191.912 132.625,192.846 129.466,199.568 117.718 C 208.920 101.374,210.948 92.843,207.740 83.333 C 206.475 79.584,213.413 88.608,215.866 93.902 C 220.463 103.826,219.973 115.806,214.109 136.789 C 213.409 139.294,216.011 138.368,218.679 135.163 C 235.107 115.418,229.176 85.097,206.840 74.644 C 200.567 71.709,191.313 70.673,187.869 72.521 M279.065 77.871 C 266.262 78.164,264.632 80.166,275.942 81.708 C 283.554 82.746,283.740 82.931,283.740 89.479 C 283.740 96.730,285.035 96.693,287.362 89.375 C 289.736 81.909,291.598 81.826,298.076 88.896 C 300.719 91.779,305.250 95.691,308.147 97.588 C 319.653 105.125,320.265 108.422,312.087 118.816 C 306.880 125.434,310.020 125.138,317.721 118.286 C 325.848 111.056,327.236 111.147,326.518 118.868 C 325.801 126.587,324.103 133.725,321.682 139.200 L 319.714 143.648 314.213 144.162 C 306.266 144.904,305.719 146.036,312.898 146.886 C 318.386 147.536,318.418 147.419,309.904 157.966 C 306.631 162.021,305.684 163.733,306.347 164.396 C 307.797 165.846,313.181 161.731,318.813 154.868 C 324.543 147.886,324.284 147.955,334.706 150.662 C 342.942 152.801,348.302 155.502,350.672 158.707 L 352.301 160.909 348.860 164.642 C 344.711 169.143,344.806 169.575,350.720 173.084 C 360.348 178.797,356.652 181.087,328.342 186.950 C 309.916 190.767,308.943 191.018,308.943 191.965 C 308.943 192.870,308.559 192.850,328.455 192.981 C 347.734 193.109,351.220 193.909,351.220 198.206 C 351.220 200.878,349.852 202.331,344.952 204.864 C 338.131 208.391,333.737 209.047,312.195 209.758 C 280.476 210.805,271.944 212.845,239.401 227.168 C 220.933 235.296,187.844 239.705,171.428 236.225 C 158.190 233.420,150.309 226.291,149.103 216.034 C 148.380 209.880,146.341 210.075,146.341 216.298 C 146.341 234.205,168.157 247.339,197.967 247.381 C 219.140 247.411,227.209 245.362,253.131 233.369 C 275.263 223.129,284.977 219.545,296.341 217.425 C 298.130 217.091,309.106 216.761,320.732 216.691 C 340.015 216.574,342.337 216.409,347.188 214.805 C 362.158 209.858,366.642 196.308,355.047 191.057 L 351.965 189.661 355.669 188.624 C 365.090 185.986,367.001 178.143,359.766 171.799 C 354.481 167.164,354.510 167.314,358.130 163.308 C 361.496 159.582,361.718 157.104,358.977 153.847 C 355.366 149.556,341.124 144.715,332.109 144.715 C 327.002 144.715,326.918 144.393,330.241 137.581 C 331.926 134.127,334.639 127.174,336.269 122.131 C 337.900 117.088,339.918 112.091,340.755 111.027 C 342.738 108.506,342.681 107.317,340.575 107.317 C 339.640 107.317,337.968 106.604,336.860 105.732 C 335.752 104.861,333.224 103.904,331.244 103.607 C 327.455 103.039,326.895 102.103,328.524 99.058 C 330.479 95.406,329.018 93.983,321.781 92.489 C 313.868 90.855,304.867 86.630,298.834 81.715 C 293.898 77.695,293.141 77.548,279.065 77.871 M177.746 81.046 C 170.323 83.533,168.650 83.846,167.301 83.004 C 165.204 81.694,164.556 82.436,165.667 84.875 C 166.331 86.333,167.452 86.972,170.068 87.385 C 172.094 87.704,176.498 89.709,180.488 92.127 C 192.581 99.457,199.787 97.763,195.153 88.680 C 193.455 85.351,191.870 84.330,191.870 86.565 C 191.870 87.540,191.452 87.604,189.634 86.904 C 188.404 86.431,185.935 85.761,184.146 85.415 L 180.894 84.786 184.146 83.349 C 189.416 81.021,192.843 80.857,194.643 82.846 C 198.038 86.598,199.555 84.455,196.269 80.550 C 193.375 77.110,189.156 77.223,177.746 81.046 M156.403 88.821 C 156.494 96.311,156.178 98.266,153.279 108.130 C 147.213 128.776,148.896 137.481,161.387 150.048 C 167.790 156.491,174.317 160.172,180.296 160.714 L 184.146 161.063 180.488 157.970 C 162.052 142.388,158.637 135.418,161.294 118.798 C 162.084 113.854,162.793 106.322,162.869 102.060 C 163.020 93.635,163.212 93.184,165.211 96.567 C 167.460 100.374,169.357 101.530,175.467 102.815 C 179.380 103.639,182.762 105.006,185.581 106.904 C 194.083 112.630,194.450 109.715,186.246 101.628 C 182.759 98.191,180.105 96.495,174.797 94.309 C 168.968 91.909,167.052 90.604,162.558 85.976 C 155.898 79.116,156.284 78.937,156.403 88.821 M236.585 89.675 C 236.585 90.703,236.219 91.911,235.772 92.358 C 235.230 92.900,235.495 95.596,236.568 100.447 C 241.298 121.843,235.678 135.544,215.854 150.946 C 209.237 156.087,216.462 154.385,226.682 148.396 C 245.761 137.214,250.512 121.948,241.503 100.775 C 238.745 94.296,238.964 94.133,245.970 97.448 C 251.460 100.045,255.285 103.976,255.285 107.021 C 255.285 108.159,255.639 108.820,256.098 108.537 C 257.950 107.392,257.008 100.132,254.675 97.578 C 249.311 91.707,236.585 86.147,236.585 89.675 M124.797 98.256 C 104.602 107.859,99.790 127.310,114.569 139.601 C 125.632 148.801,148.846 162.844,149.974 161.018 C 150.229 160.605,145.859 156.189,140.262 151.204 C 112.928 126.853,110.140 117.242,126.019 102.096 C 133.008 95.430,132.710 94.493,124.797 98.256 M274.499 132.227 C 265.048 143.782,254.734 148.774,212.092 162.434 C 181.916 172.100,174.671 171.695,160.830 159.570 C 153.230 152.912,153.659 153.181,153.659 155.078 C 153.659 157.760,160.367 165.920,166.169 170.295 L 171.520 174.329 163.605 178.425 C 142.471 189.360,133.072 202.760,138.777 213.821 C 140.801 217.746,141.797 217.053,141.557 211.885 C 140.929 198.324,154.394 188.947,192.069 176.709 C 199.785 174.203,212.500 169.989,220.325 167.346 C 247.893 158.033,254.090 157.317,258.636 162.924 C 259.399 163.865,260.264 164.394,260.559 164.100 C 261.386 163.277,258.824 158.883,256.535 157.198 L 254.487 155.691 261.087 150.407 C 269.092 143.998,273.637 139.057,276.687 133.451 C 280.025 127.318,278.988 126.738,274.499 132.227 M289.332 153.553 C 280.063 159.671,273.749 165.648,265.918 175.718 C 253.840 191.249,248.686 194.051,230.081 195.196 C 210.878 196.378,202.701 197.528,192.579 200.469 C 181.550 203.675,178.080 203.875,172.212 201.645 C 169.886 200.762,167.778 200.244,167.528 200.495 C 166.747 201.279,171.606 204.931,174.091 205.428 C 177.906 206.191,177.539 206.951,171.675 210.435 C 163.038 215.566,160.896 219.426,169.326 214.669 C 181.704 207.683,192.240 205.402,221.951 203.276 C 247.090 201.478,248.057 201.288,255.333 196.726 C 265.939 190.077,268.216 189.837,272.962 194.869 C 276.151 198.251,276.955 197.980,275.632 193.970 C 274.609 190.870,271.640 188.064,268.567 187.293 C 265.957 186.638,266.025 186.432,271.556 178.163 C 274.996 173.020,279.738 167.701,287.551 160.223 C 299.647 148.645,300.263 146.338,289.332 153.553 M85.572 155.140 C 85.015 155.494,82.707 160.440,80.444 166.133 L 76.329 176.482 78.205 180.473 C 79.237 182.668,80.630 184.706,81.301 185.003 C 83.167 185.829,112.470 186.663,116.428 186.003 C 128.712 183.955,130.675 181.301,119.905 181.301 C 106.759 181.301,87.451 177.524,86.581 174.782 C 85.207 170.453,88.318 157.724,90.750 157.724 C 92.387 157.724,92.117 156.287,90.297 155.313 C 88.431 154.314,86.957 154.260,85.572 155.140 M298.780 221.163 C 284.148 223.404,271.735 227.954,253.252 237.853 C 237.607 246.231,235.348 247.252,228.169 249.189 C 217.475 252.075,218.304 254.298,232.114 259.763 C 252.578 267.861,267.220 276.385,277.590 286.235 C 285.118 293.386,285.105 293.410,276.072 288.986 C 263.521 282.838,248.945 281.142,234.553 284.154 C 221.207 286.947,219.621 289.087,228.582 292.212 C 238.639 295.718,247.718 302.349,258.876 314.336 C 262.261 317.973,266.341 321.570,267.943 322.330 C 277.310 326.775,290.745 320.887,292.292 311.658 C 292.580 309.941,292.883 308.247,292.964 307.893 C 293.132 307.161,304.650 322.036,305.372 323.918 C 305.631 324.593,305.074 326.225,304.134 327.545 C 298.242 335.819,302.611 341.815,319.021 347.975 C 338.103 355.138,341.353 360.458,331.638 368.633 C 329.144 370.731,329.113 370.838,330.535 372.410 C 333.319 375.487,340.650 366.421,340.650 359.902 C 340.650 353.639,336.204 350.113,321.481 344.700 C 306.558 339.213,301.654 331.979,309.874 327.579 C 310.704 327.135,311.382 326.321,311.382 325.769 C 311.382 324.368,300.685 310.191,295.926 305.285 C 293.757 303.049,291.345 299.573,290.566 297.561 C 285.686 284.956,269.179 269.893,246.951 257.763 C 243.486 255.872,240.650 254.188,240.650 254.021 C 240.650 252.446,273.223 233.207,281.713 229.768 C 303.409 220.980,343.443 222.455,330.076 231.550 C 327.413 233.362,326.831 233.440,320.732 232.798 C 308.626 231.525,299.473 232.051,292.149 234.443 C 279.974 238.418,278.387 242.020,290.074 239.154 C 299.147 236.929,303.460 236.928,317.165 239.148 C 329.760 241.188,331.201 240.947,336.835 235.856 C 341.767 231.401,343.798 225.844,341.260 223.752 C 338.272 221.289,309.433 219.532,298.780 221.163 M313.821 242.175 C 313.821 242.566,314.875 243.097,316.162 243.354 C 318.821 243.886,321.359 246.077,320.909 247.452 C 319.917 250.483,303.771 252.195,296.395 250.051 C 293.773 249.288,290.677 248.892,289.513 249.169 C 280.420 251.335,276.860 255.122,284.794 254.189 C 287.663 253.852,291.879 254.222,297.424 255.297 C 311.962 258.115,321.527 256.903,327.044 251.545 C 331.958 246.772,331.464 243.613,325.588 242.251 C 321.461 241.294,313.821 241.245,313.821 242.175 M260.668 260.532 C 263.402 267.659,293.486 277.715,303.659 274.903 C 310.464 273.021,316.120 267.383,316.499 262.102 L 316.667 259.756 310.240 259.516 C 303.022 259.247,301.700 259.876,303.504 262.718 C 309.272 271.804,287.204 271.701,269.017 262.557 C 262.230 259.144,259.920 258.584,260.668 260.532 M259.855 289.025 C 280.433 294.235,290.663 302.214,286.183 309.560 C 280.910 318.209,273.793 317.280,259.797 306.117 C 250.761 298.911,244.312 294.557,237.398 290.998 L 232.114 288.277 234.959 287.741 C 241.749 286.464,251.781 286.981,259.855 289.025 M290.650 337.926 C 283.645 342.623,283.058 343.321,284.578 345.152 C 285.442 346.194,285.918 346.133,288.266 344.682 L 290.961 343.016 304.117 362.768 C 319.607 386.024,318.149 384.217,320.232 382.759 C 321.851 381.624,321.487 380.970,308.190 361.112 L 294.478 340.636 296.945 338.705 C 299.172 336.962,299.302 336.619,298.283 335.170 C 297.192 333.620,296.938 333.712,290.650 337.926 M93.089 336.054 C 65.399 343.223,65.061 381.961,92.620 389.972 C 113.051 395.912,132.678 375.768,126.826 354.865 C 123.067 341.440,106.966 332.462,93.089 336.054 M109.815 341.465 C 124.736 348.960,128.054 367.826,116.550 379.758 C 102.161 394.681,76.151 383.821,76.271 362.941 C 76.370 345.846,94.908 333.977,109.815 341.465 M280.174 345.767 C 278.846 346.737,279.528 348.315,289.043 366.279 C 300.351 387.631,301.233 390.101,298.282 392.168 C 293.089 395.805,292.272 394.899,280.056 371.951 C 277.914 367.927,274.756 362.132,273.040 359.074 C 271.323 356.015,269.919 353.180,269.919 352.773 C 269.919 351.716,268.843 351.857,267.082 353.145 C 265.035 354.642,285.577 393.475,289.922 396.322 C 296.296 400.499,304.827 395.201,303.934 387.620 C 303.642 385.138,283.063 344.781,282.066 344.736 C 281.816 344.725,280.965 345.189,280.174 345.767 M253.093 357.688 C 249.815 359.686,249.068 363.159,250.738 368.637 C 251.843 372.262,251.835 372.729,250.652 373.595 C 249.106 374.725,249.826 376.242,252.365 377.208 C 253.789 377.749,255.459 381.263,260.361 394.027 C 266.577 410.212,267.829 412.117,270.494 409.452 C 270.642 409.304,267.822 401.575,264.228 392.276 C 260.633 382.978,257.791 375.300,257.911 375.216 C 259.073 374.396,265.291 372.417,265.771 372.713 C 266.114 372.925,269.238 380.388,272.712 389.297 C 279.037 405.516,280.377 407.533,282.521 404.063 C 283.287 402.824,265.842 360.373,263.678 358.208 C 261.080 355.611,256.841 355.402,253.093 357.688 M136.272 359.421 C 131.915 362.849,131.425 364.970,130.557 384.154 C 129.860 399.590,125.688 403.800,115.967 398.879 C 111.296 396.514,108.352 398.727,112.255 401.671 C 124.849 411.171,133.707 403.235,134.626 381.630 C 135.382 363.862,137.907 359.404,145.235 362.898 C 148.816 364.606,149.352 364.573,150.418 362.580 C 152.412 358.854,140.403 356.172,136.272 359.421 M261.099 361.585 C 262.404 363.148,264.436 367.542,264.038 367.940 C 263.900 368.078,262.087 368.920,260.008 369.811 L 256.229 371.431 254.944 368.219 C 253.305 364.124,253.325 363.748,255.285 361.789 C 257.289 359.784,259.529 359.706,261.099 361.585 M144.448 385.208 C 133.221 410.731,133.392 410.220,135.834 410.995 C 137.950 411.667,136.786 413.814,145.542 393.089 C 149.698 383.252,153.348 374.915,153.654 374.562 C 153.959 374.209,154.634 376.922,155.153 380.591 C 156.445 389.727,156.232 389.740,163.879 380.067 L 166.375 376.909 164.531 394.349 C 162.050 417.814,162.054 418.699,164.634 418.699 C 166.056 418.699,166.667 418.256,166.667 417.223 C 166.667 415.361,170.524 374.908,171.197 369.715 C 171.896 364.323,170.817 364.745,164.948 372.154 C 158.593 380.179,158.953 380.217,157.746 371.387 C 155.942 358.187,156.664 357.437,144.448 385.208 M242.479 362.423 C 240.834 362.685,240.701 363.038,241.160 365.910 C 241.773 369.740,241.881 369.725,233.279 367.007 C 229.625 365.853,226.342 365.213,225.982 365.584 C 224.511 367.104,236.844 417.877,238.686 417.882 C 241.651 417.890,242.004 420.364,234.161 386.179 C 230.350 369.566,230.480 370.399,231.782 370.897 C 232.411 371.138,235.122 372.004,237.805 372.821 C 240.488 373.638,242.751 374.332,242.833 374.363 C 242.916 374.395,245.024 383.351,247.518 394.266 C 252.563 416.349,252.088 414.984,254.459 414.231 C 255.919 413.768,256.111 413.270,255.664 411.108 C 254.170 403.877,244.688 362.318,244.513 362.231 C 244.401 362.176,243.486 362.262,242.479 362.423 M192.276 366.941 C 161.344 377.251,167.282 421.483,199.593 421.447 C 229.261 421.414,238.489 381.727,211.859 368.698 C 206.534 366.093,197.305 365.264,192.276 366.941 M209.756 372.241 C 232.266 383.839,224.986 417.521,200.021 417.287 C 179.835 417.097,168.872 394.555,181.320 378.837 C 187.949 370.468,200.614 367.530,209.756 372.241 " stroke="none" fill="#000000" fill-rule="evenodd"></path></g></svg>