<?xml version="1.0" standalone="no"?>
<!DOCTYPE svg PUBLIC "-//W3C//DTD SVG 20010904//EN"
 "http://www.w3.org/TR/2001/REC-SVG-20010904/DTD/svg10.dtd">
<svg version="1.0" xmlns="http://www.w3.org/2000/svg"
 width="492.000000pt" height="533.000000pt" viewBox="0 0 492.000000 533.000000"
 preserveAspectRatio="xMidYMid meet">

<g transform="translate(0.000000,533.000000) scale(0.100000,-0.100000)"
fill="#000000" stroke="none">
<path d="M1 4168 c0 -640 2 -1158 4 -1153 2 6 9 57 15 115 82 793 603 1543
1340 1928 357 187 742 274 1145 259 355 -14 665 -94 994 -258 643 -319 1138
-897 1325 -1547 41 -142 53 -203 76 -387 18 -139 18 -134 19 1033 l1 1172
-2460 0 -2460 0 1 -1162z"/>
<path d="M2310 5263 c-701 -52 -1271 -357 -1732 -928 -255 -316 -425 -703
-495 -1130 -25 -152 -25 -493 1 -655 39 -257 115 -495 232 -729 119 -238 247
-418 442 -620 95 -99 108 -117 98 -133 -6 -10 -15 -18 -20 -18 -16 0 -197 189
-278 290 -306 382 -486 816 -542 1305 -12 107 -14 -35 -15 -1262 l-1 -1383
2460 0 2460 0 -1 1398 c-1 840 -5 1363 -10 1312 -57 -567 -277 -1054 -677
-1497 -86 -95 -95 -102 -115 -92 -12 7 -24 13 -25 15 -2 1 41 52 95 112 926
1020 889 2402 -89 3327 -453 428 -1024 670 -1623 688 -66 2 -140 2 -165 0z
m512 -502 c147 -63 214 -77 308 -63 97 14 145 2 202 -48 41 -36 98 -130 98
-163 0 -8 -20 -27 -45 -41 -25 -15 -93 -72 -152 -128 -59 -55 -109 -95 -111
-89 -2 6 32 60 76 119 43 59 82 115 86 125 9 28 -22 84 -61 108 -31 19 -43 21
-123 15 -127 -10 -167 -2 -257 55 -133 84 -154 80 -165 -32 -11 -100 -34 -169
-58 -169 -4 0 -35 40 -70 90 -34 49 -68 94 -75 100 -8 7 -31 2 -74 -15 -82
-34 -118 -34 -184 -2 -67 33 -72 33 -85 0 -26 -69 -26 -71 14 -75 56 -5 57
-28 1 -28 l-44 0 -13 -59 c-14 -69 -23 -86 -40 -76 -8 5 -11 29 -8 73 l3 65
-40 12 c-22 6 -61 24 -86 38 -25 15 -51 27 -57 27 -19 0 -132 -117 -132 -135
0 -9 28 -70 61 -135 70 -136 70 -165 0 -96 -40 40 -57 48 -126 65 -179 43
-211 39 -301 -43 -29 -25 -57 -46 -63 -46 -6 0 -31 10 -56 22 -24 12 -48 19
-51 15 -4 -4 0 -25 9 -48 9 -22 13 -47 10 -55 -3 -9 -65 -60 -137 -113 -216
-162 -257 -217 -236 -317 7 -31 15 -54 20 -52 4 2 58 58 120 126 61 67 118
122 126 122 11 0 14 -5 10 -17 -15 -39 -106 -182 -170 -267 l-69 -91 11 -80
c15 -113 2 -123 -44 -33 -25 48 -26 49 -47 33 -12 -9 -39 -23 -59 -32 -43 -18
-47 -34 -18 -81 27 -43 25 -66 -5 -90 -14 -11 -25 -27 -25 -35 0 -19 149 -159
218 -205 38 -26 51 -40 47 -52 -4 -14 7 -22 52 -39 117 -42 185 -55 298 -56
123 0 170 15 237 74 l37 32 6 -38 c14 -87 15 -83 -17 -83 -17 0 -55 -8 -86
-17 -87 -27 -359 -24 -464 5 -78 21 -171 63 -183 82 -4 6 1 17 11 25 17 12 14
16 -41 50 -33 20 -120 69 -194 109 -74 40 -139 79 -144 87 -7 10 0 29 23 64
30 48 31 53 25 126 l-7 77 53 11 c60 13 157 62 189 96 l22 24 -47 140 c-25 77
-44 145 -40 151 3 5 50 42 103 82 113 83 213 177 245 227 14 24 24 58 27 101
l5 65 104 5 c102 5 104 5 130 37 14 18 46 69 71 114 25 46 50 84 57 86 6 2 20
-25 33 -64 26 -77 58 -127 99 -147 44 -23 151 -57 161 -51 5 3 -20 50 -55 104
-64 97 -90 161 -66 161 7 0 26 -7 42 -16 49 -25 68 -15 134 71 35 44 70 80 79
80 10 0 28 -20 44 -50 18 -33 44 -61 76 -82 74 -50 80 -47 73 40 -4 39 -9 86
-13 103 -6 30 -4 32 29 38 30 6 44 1 98 -34 103 -66 110 -66 269 20 107 59
125 62 116 23 -23 -95 -20 -121 19 -179 48 -74 60 -62 45 42 -16 103 -14 123
11 150 20 21 24 22 63 10 22 -7 84 -32 138 -55z m-341 -327 c158 -47 274 -175
315 -350 24 -103 11 -196 -43 -312 -20 -44 -79 -124 -99 -135 -20 -11 -18 9
11 137 35 158 42 258 20 332 -19 67 -71 157 -111 194 l-27 25 7 -25 c4 -14 9
-54 12 -90 8 -80 -16 -157 -84 -275 -125 -219 -116 -195 -117 -340 -1 -119 -3
-135 -28 -188 -33 -73 -51 -68 -42 12 4 34 0 97 -10 161 -9 58 -16 133 -17
166 -1 73 13 101 107 209 116 134 145 190 145 282 0 63 -17 109 -54 143 -25
22 -36 25 -107 25 -43 0 -79 4 -79 8 0 14 64 36 106 37 22 0 65 -7 95 -16z
m-70 -93 c45 -45 39 -68 -8 -31 -33 26 -76 25 -133 -1 l-45 -21 50 -13 c28 -7
60 -16 73 -20 18 -6 21 -4 16 9 -13 33 16 14 36 -24 34 -68 22 -100 -37 -100
-36 0 -83 21 -168 76 -32 20 -74 37 -101 41 -35 4 -48 11 -57 30 -13 29 -5 38
21 22 18 -11 37 -8 134 24 142 46 180 47 219 8z m1262 -16 c68 -59 176 -112
273 -132 98 -20 111 -30 95 -74 -17 -49 -14 -56 27 -64 20 -4 51 -15 68 -26
17 -10 41 -19 53 -19 26 0 27 -13 1 -48 -11 -15 -38 -80 -60 -146 -22 -65 -56
-149 -76 -187 -39 -78 -41 -74 57 -83 138 -13 267 -62 308 -117 28 -37 23 -65
-19 -113 -17 -18 -30 -37 -30 -42 0 -4 25 -31 56 -60 56 -51 57 -53 51 -96 -7
-52 -46 -92 -109 -109 l-43 -12 42 -18 c46 -20 83 -68 83 -108 0 -37 -44 -104
-89 -135 -86 -60 -138 -68 -441 -71 -242 -2 -284 -5 -350 -23 -112 -30 -266
-91 -445 -174 -342 -160 -382 -171 -665 -172 -195 -1 -222 1 -293 22 -108 31
-191 75 -255 135 -78 75 -120 172 -106 246 10 47 21 37 27 -23 24 -239 327
-329 792 -235 147 29 252 63 417 135 312 135 499 174 833 174 191 0 279 14
365 57 67 34 97 71 81 101 -20 38 -65 45 -293 50 -197 3 -251 10 -200 26 9 3
103 23 207 45 232 48 301 67 326 92 27 27 11 52 -51 84 -61 31 -65 55 -15 101
19 17 35 38 35 46 0 23 -50 69 -97 90 -88 39 -263 73 -263 51 0 -15 -109 -135
-143 -160 -19 -14 -43 -23 -53 -21 -14 2 -10 12 27 58 69 86 99 128 99 138 0
5 -25 13 -55 17 -57 7 -76 25 -26 25 15 0 49 3 74 6 l46 7 29 81 c47 129 66
293 36 303 -6 2 -48 -28 -93 -67 -116 -100 -127 -97 -51 17 31 46 50 86 50
103 0 37 -36 79 -103 121 -28 18 -89 68 -133 111 -45 43 -86 78 -92 78 -17 0
-33 -28 -51 -86 -25 -84 -41 -82 -41 5 0 82 -1 84 -104 99 -74 12 -81 15 -71
31 4 7 61 11 156 11 l151 0 51 -45z m-1683 -51 c43 -43 80 -68 167 -110 100
-48 117 -60 163 -116 27 -35 46 -64 41 -66 -11 -4 -67 23 -99 49 -13 10 -55
25 -94 34 -89 20 -101 27 -128 70 -12 19 -26 35 -31 35 -5 0 -9 -41 -9 -91 0
-51 -7 -137 -16 -193 -20 -124 -14 -196 20 -264 29 -58 143 -184 206 -227 52
-36 51 -49 -2 -41 -138 22 -321 201 -359 349 -16 66 -8 130 42 309 38 140 41
160 36 236 -3 45 -3 82 1 82 4 0 32 -25 62 -56z m1045 -77 c103 -61 125 -86
125 -141 0 -24 -4 -48 -10 -51 -6 -3 -10 5 -10 19 0 14 -13 38 -32 57 -52 51
-180 103 -165 67 74 -176 92 -251 78 -337 -5 -32 -16 -73 -24 -92 -36 -84
-150 -187 -274 -246 -109 -52 -119 -39 -25 35 181 142 259 307 232 487 -6 39
-17 95 -25 125 -8 30 -11 59 -6 64 5 6 11 24 15 39 8 35 23 32 121 -26z
m-1488 -124 c-115 -114 -144 -210 -93 -312 31 -61 140 -177 286 -305 174 -154
97 -135 -165 39 -214 143 -257 191 -263 295 -6 98 17 167 74 224 55 55 170
126 204 126 22 0 18 -7 -43 -67z m1873 -348 c-24 -64 -96 -150 -191 -228 -94
-77 -112 -97 -89 -97 17 0 60 -51 60 -71 0 -14 -6 -12 -29 12 -26 25 -37 29
-88 29 -75 0 -117 -12 -590 -169 -424 -140 -568 -203 -665 -290 -65 -58 -82
-92 -88 -181 l-6 -75 -23 49 c-70 147 49 306 334 447 l67 34 -33 25 c-96 71
-189 179 -189 217 0 8 34 -15 75 -50 89 -77 186 -126 258 -134 70 -7 204 26
497 124 468 157 555 200 656 333 42 55 59 64 44 25z m240 -239 c0 -2 -61 -64
-136 -137 -121 -120 -244 -273 -244 -305 0 -5 18 -18 39 -27 28 -13 45 -30 60
-59 11 -23 18 -44 16 -46 -2 -3 -23 12 -45 32 -24 21 -50 36 -65 36 -29 0 -94
-31 -143 -67 -56 -42 -128 -61 -277 -72 -77 -6 -205 -15 -285 -21 -224 -17
-333 -44 -480 -121 -85 -44 -80 -42 -80 -29 0 6 36 34 80 62 45 28 77 54 73
58 -4 4 -24 13 -44 19 -36 12 -77 46 -67 56 3 3 25 -4 49 -15 60 -27 136 -25
233 5 129 40 220 54 438 69 194 13 210 15 270 43 84 40 135 86 222 202 40 53
102 123 137 155 90 84 249 187 249 162z m-2536 -77 c5 -5 -1 -12 -16 -18 -22
-8 -27 -18 -37 -86 -15 -100 -14 -130 4 -145 24 -20 281 -60 388 -60 74 0 98
-3 95 -12 -11 -33 -80 -43 -288 -43 -263 0 -270 2 -303 65 l-25 49 27 68 c16
37 36 90 46 117 23 62 49 89 78 80 12 -3 26 -10 31 -15z m3004 -812 c34 -8 68
-19 74 -25 35 -35 -47 -157 -127 -187 -42 -17 -49 -17 -163 4 -150 27 -256 27
-347 1 -80 -23 -95 -24 -95 -9 0 17 122 67 211 85 72 15 98 15 184 5 143 -16
163 -15 202 15 43 33 42 51 -4 71 -110 45 -443 15 -611 -57 -134 -57 -485
-270 -486 -295 0 -5 36 -30 80 -54 252 -138 439 -303 509 -446 22 -47 62 -106
95 -142 31 -35 85 -101 118 -149 l62 -87 -35 -38 c-39 -43 -42 -57 -21 -97 18
-34 63 -60 201 -113 61 -23 127 -53 147 -66 38 -25 68 -75 68 -112 0 -35 -29
-94 -62 -128 -34 -35 -47 -40 -66 -21 -9 9 -1 23 33 59 89 95 54 157 -126 224
-57 21 -125 49 -150 61 -101 50 -127 124 -74 206 l24 36 -75 101 c-83 112 -94
122 -94 89 -1 -33 -33 -99 -61 -125 -38 -34 -93 -53 -157 -53 -73 0 -125 31
-203 120 -111 129 -267 241 -384 275 -137 41 77 113 304 102 132 -6 219 -29
320 -83 35 -19 65 -33 68 -31 2 3 -25 34 -61 70 -123 121 -292 221 -550 327
-82 33 -151 62 -153 64 -2 2 0 13 5 26 7 18 26 28 93 47 47 13 139 53 209 91
337 180 480 232 695 256 73 8 339 -4 403 -17z m-95 -256 c39 -15 37 -57 -5
-99 -74 -70 -181 -86 -357 -53 -80 16 -130 20 -167 15 -88 -11 -67 21 34 51
40 13 53 12 96 0 87 -26 256 -15 302 20 25 18 10 45 -33 59 -18 6 -35 15 -40
20 -11 12 134 1 170 -13z m-731 -241 c135 -66 335 -107 401 -81 39 15 54 53
34 85 -21 31 -10 36 76 36 86 0 94 -7 70 -61 -22 -49 -63 -93 -107 -116 -39
-20 -170 -20 -260 1 -120 28 -306 130 -306 167 0 13 2 13 92 -31z m368 -900
c6 -11 7 -20 3 -20 -4 -1 -18 -9 -31 -20 l-23 -19 161 -240 c88 -132 163 -247
166 -255 3 -8 -2 -19 -13 -24 -16 -9 -38 21 -183 239 -91 137 -169 249 -173
249 -5 0 -22 -9 -37 -20 l-29 -21 -12 22 c-9 17 -8 24 2 30 8 4 43 28 79 53
36 25 68 46 72 46 4 0 12 -9 18 -20z m-2288 -31 c62 -32 125 -95 155 -158 24
-49 28 -68 28 -146 0 -108 -20 -159 -89 -233 -162 -173 -441 -132 -555 83 -23
44 -26 61 -26 150 0 85 3 106 23 143 34 64 99 130 155 158 89 46 223 47 309 3z
m2222 -332 c146 -276 155 -305 109 -357 -22 -24 -39 -33 -74 -37 -71 -8 -90
15 -238 288 -120 222 -129 243 -113 255 9 7 20 10 23 6 8 -9 29 -47 160 -291
80 -150 109 -196 132 -208 27 -14 32 -13 56 5 48 36 42 58 -98 322 -124 235
-133 260 -96 260 6 0 68 -109 139 -243z m-364 86 c23 -22 53 -88 134 -293 101
-258 106 -279 70 -280 -6 0 -46 89 -89 198 -43 108 -79 199 -81 201 -4 5 -75
-17 -94 -29 -9 -6 7 -59 64 -206 42 -110 76 -204 76 -210 0 -7 -8 -14 -19 -17
-16 -4 -29 23 -99 202 -53 137 -84 205 -93 203 -7 -2 -19 4 -26 14 -10 14 -10
19 3 29 14 10 14 16 1 62 -17 56 -13 87 12 117 37 43 99 47 141 9z m-1432 -13
c43 -20 48 -26 33 -48 -7 -12 -14 -11 -39 2 -41 21 -85 20 -105 -2 -30 -33
-39 -78 -46 -238 -8 -179 -18 -209 -81 -251 -41 -28 -74 -29 -144 -2 -64 23
-74 35 -53 56 13 13 19 12 55 -6 77 -39 135 -22 164 49 6 14 14 97 18 185 6
136 10 166 28 202 37 71 92 88 170 53z m117 -62 c9 -58 25 -163 25 -170 0 -21
23 0 81 73 l64 82 2 -44 c4 -69 -51 -602 -62 -606 -5 -1 -16 1 -23 6 -11 7
-10 45 7 222 12 118 24 229 27 247 3 17 1 32 -3 32 -4 -1 -29 -30 -56 -65 -26
-36 -51 -65 -56 -65 -4 0 -14 39 -21 86 -7 47 -16 82 -21 77 -4 -4 -50 -107
-101 -228 -81 -188 -97 -219 -114 -217 -10 2 -21 6 -23 8 -2 2 33 88 79 191
45 104 103 236 128 296 26 59 50 107 54 107 4 0 10 -15 13 -32z m1085 20 c0
-2 31 -142 70 -313 38 -170 68 -310 67 -311 -1 -1 -11 -4 -22 -8 -19 -6 -24 9
-75 232 -29 130 -55 242 -57 248 -4 12 -142 58 -150 50 -3 -3 23 -130 57 -282
52 -227 60 -278 49 -285 -20 -13 -27 -11 -33 9 -13 42 -136 587 -136 604 0 24
19 23 112 -6 42 -13 79 -22 81 -19 3 2 1 19 -3 38 -4 19 -5 36 -2 39 5 6 42 8
42 4z m-413 -73 c70 -31 137 -96 170 -164 24 -48 28 -68 28 -141 0 -76 -3 -92
-33 -152 -61 -125 -165 -188 -310 -188 -92 0 -156 26 -227 91 -141 130 -145
353 -8 486 104 100 249 126 380 68z"/>
<path d="M2880 1791 c-24 -7 -24 -8 20 -30 76 -39 210 -130 306 -207 51 -41
108 -81 128 -89 93 -39 186 7 211 106 5 22 0 32 -35 61 -57 49 -140 92 -251
129 -82 27 -110 32 -224 35 -71 2 -141 0 -155 -5z"/>
<path d="M1123 1139 c-63 -25 -132 -90 -163 -156 -35 -72 -34 -170 3 -246 54
-110 166 -174 289 -164 111 9 198 71 246 175 63 138 -2 311 -143 384 -59 31
-165 34 -232 7z"/>
<path d="M3140 880 c-24 -24 -24 -29 -4 -79 l16 -40 46 20 c26 11 48 22 50 23
1 2 -3 16 -10 32 -27 66 -61 81 -98 44z"/>
<path d="M2353 764 c-57 -21 -123 -81 -158 -145 -25 -46 -29 -65 -29 -129 -1
-91 22 -148 84 -210 61 -61 119 -84 210 -84 93 -1 151 25 212 93 58 65 82 133
76 219 -3 37 -13 82 -22 101 -29 55 -98 123 -151 147 -59 28 -155 31 -222 8z"/>
</g>
</svg>
